<svg id="Layer_1" data-name="Layer 1" xmlns="http://www.w3.org/2000/svg" viewBox="0 0 448 512"><defs><style>.cls-1{fill:#1ebba3;}</style></defs><path class="cls-1" d="M436,160a12,12,0,0,0,12-12V108a12,12,0,0,0-12-12H416V48A48,48,0,0,0,368,0H48A48,48,0,0,0,0,48V464a48,48,0,0,0,48,48H368a48,48,0,0,0,48-48V416h20a12,12,0,0,0,12-12V364a12,12,0,0,0-12-12H416V288h20a12,12,0,0,0,12-12V236a12,12,0,0,0-12-12H416V160ZM208,128a64,64,0,1,1-64,64A64.06,64.06,0,0,1,208,128ZM320,364.8c0,10.6-10,19.2-22.4,19.2H118.4C106,384,96,375.4,96,364.8V345.6c0-31.8,30.1-57.6,67.2-57.6h5a103,103,0,0,0,79.6,0h5c37.1,0,67.2,25.8,67.2,57.6Z"/></svg>