<svg id="Layer_1" data-name="Layer 1" xmlns="http://www.w3.org/2000/svg" viewBox="0 0 366.98 448"><defs><style>.cls-1{fill:#1ebba3;}</style></defs><path class="cls-1" d="M333.49,238a122,122,0,0,0,27-65.21C367.87,96.49,308,32,233.42,32H34A16,16,0,0,0,18,48V96a16,16,0,0,0,16,16H65.87V400H34a16,16,0,0,0-16,16v48a16,16,0,0,0,16,16H243.32c70.8,0,134.14-51.75,141-122.4C389.06,309.15,367.93,265.54,333.49,238ZM145.66,112h87.76a48,48,0,1,1,0,96H145.66Zm87.76,288H145.66V288h87.76a56,56,0,1,1,0,112Z" transform="translate(-18 -32)"/></svg>