<svg id="Layer_1" data-name="Layer 1" xmlns="http://www.w3.org/2000/svg" viewBox="0 0 640.05 511.96"><defs><style>.cls-1{fill:#1ebba3;}</style></defs><path class="cls-1" d="M278.9,511.5l-61-17.7a12,12,0,0,1-8.2-14.9L346.2,8.7A12,12,0,0,1,361.1.5l61,17.7a12,12,0,0,1,8.2,14.9L293.8,503.3A12,12,0,0,1,278.9,511.5Zm-114-112.2,43.5-46.4a12,12,0,0,0-.8-17.2L117,256l90.6-79.7a11.92,11.92,0,0,0,.8-17.2l-43.5-46.4a12,12,0,0,0-17-.5L3.8,247.2a11.92,11.92,0,0,0,0,17.5L147.9,399.8a11.92,11.92,0,0,0,17-.5Zm327.2.6L636.2,264.8a11.92,11.92,0,0,0,0-17.5L492.1,112.1a12.11,12.11,0,0,0-17,.5L431.6,159a12,12,0,0,0,.8,17.2L523,256l-90.6,79.7a11.92,11.92,0,0,0-.8,17.2l43.5,46.4a12,12,0,0,0,17,.6Z" transform="translate(0.02 -0.04)"/></svg>