<svg id="Layer_1" data-name="Layer 1" xmlns="http://www.w3.org/2000/svg" viewBox="0 0 512 448"><defs><style>.cls-1{fill:#1ebba3;}</style></defs><path class="cls-1" d="M496,384H160V368a16,16,0,0,0-16-16H112a16,16,0,0,0-16,16v16H16A16,16,0,0,0,0,400v32a16,16,0,0,0,16,16H96v16a16,16,0,0,0,16,16h32a16,16,0,0,0,16-16V448H496a16,16,0,0,0,16-16V400A16,16,0,0,0,496,384Zm0-160H416V208a16,16,0,0,0-16-16H368a16,16,0,0,0-16,16v16H16A16,16,0,0,0,0,240v32a16,16,0,0,0,16,16H352v16a16,16,0,0,0,16,16h32a16,16,0,0,0,16-16V288h80a16,16,0,0,0,16-16V240A16,16,0,0,0,496,224Zm0-160H288V48a16,16,0,0,0-16-16H240a16,16,0,0,0-16,16V64H16A16,16,0,0,0,0,80v32a16,16,0,0,0,16,16H224v16a16,16,0,0,0,16,16h32a16,16,0,0,0,16-16V128H496a16,16,0,0,0,16-16V80A16,16,0,0,0,496,64Z" transform="translate(0 -32)"/></svg>